<mxfile host="Electron" agent="Mozilla/5.0 (Macintosh; Intel Mac OS X 10_15_7) AppleWebKit/537.36 (KHTML, like Gecko) draw.io/26.0.7 Chrome/128.0.6613.186 Electron/32.2.5 Safari/537.36" version="26.0.7">
  <diagram name="페이지-1" id="LTrEzsIU5y0HXaRLBN6W">
    <mxGraphModel dx="954" dy="1896" grid="1" gridSize="10" guides="1" tooltips="1" connect="1" arrows="1" fold="1" page="1" pageScale="1" pageWidth="827" pageHeight="1169" math="0" shadow="0">
      <root>
        <mxCell id="0" />
        <mxCell id="1" parent="0" />
        <mxCell id="OQ7VlELL3s1LQOsK370u-9" value="&lt;font style=&quot;color: rgb(0, 0, 0);&quot; face=&quot;Comic Sans MS&quot;&gt;&lt;span style=&quot;font-size: 30px;&quot;&gt;&lt;b&gt;Spring Container&lt;/b&gt;&lt;/span&gt;&lt;/font&gt;" style="rounded=1;whiteSpace=wrap;html=1;fillColor=none;strokeWidth=5;labelPosition=center;verticalLabelPosition=top;align=center;verticalAlign=bottom;fontColor=#009900;strokeColor=#009900;" parent="1" vertex="1">
          <mxGeometry x="1090" y="-228.75" width="1160" height="968.75" as="geometry" />
        </mxCell>
        <mxCell id="OQ7VlELL3s1LQOsK370u-20" value="&lt;font face=&quot;Comic Sans MS&quot;&gt;&lt;span style=&quot;font-size: 25px;&quot;&gt;ExceptionResolver (ControllerAdvice)&lt;/span&gt;&lt;/font&gt;" style="rounded=1;whiteSpace=wrap;html=1;fillColor=none;strokeWidth=5;labelPosition=center;verticalLabelPosition=top;align=center;verticalAlign=bottom;dashed=1;strokeColor=#009900;" parent="1" vertex="1">
          <mxGeometry x="1310" y="-170" width="890" height="870" as="geometry" />
        </mxCell>
        <mxCell id="OQ7VlELL3s1LQOsK370u-24" value="&lt;font face=&quot;Comic Sans MS&quot;&gt;&lt;span style=&quot;font-size: 25px;&quot;&gt;DataFetcherExceptionHandler&lt;/span&gt;&lt;/font&gt;" style="rounded=1;whiteSpace=wrap;html=1;fillColor=none;strokeWidth=5;labelPosition=center;verticalLabelPosition=top;align=center;verticalAlign=bottom;strokeColor=#CC00CC;dashed=1;" parent="1" vertex="1">
          <mxGeometry x="1620" y="270" width="540" height="390" as="geometry" />
        </mxCell>
        <mxCell id="OQ7VlELL3s1LQOsK370u-5" value="&lt;font style=&quot;font-size: 30px;&quot; face=&quot;Comic Sans MS&quot;&gt;&lt;b&gt;Servlet Container&lt;/b&gt;&lt;/font&gt;" style="rounded=1;whiteSpace=wrap;html=1;fillColor=none;strokeWidth=5;labelPosition=center;verticalLabelPosition=top;align=center;verticalAlign=bottom;" parent="1" vertex="1">
          <mxGeometry x="500" y="160.63" width="470" height="190" as="geometry" />
        </mxCell>
        <mxCell id="OQ7VlELL3s1LQOsK370u-6" value="&lt;font style=&quot;font-size: 25px;&quot; face=&quot;Comic Sans MS&quot;&gt;Filter&lt;/font&gt;" style="rounded=1;whiteSpace=wrap;html=1;fillColor=none;strokeWidth=5;labelPosition=center;verticalLabelPosition=middle;align=center;verticalAlign=middle;" parent="1" vertex="1">
          <mxGeometry x="540" y="200.63" width="160" height="110" as="geometry" />
        </mxCell>
        <mxCell id="OQ7VlELL3s1LQOsK370u-7" value="&lt;font face=&quot;Comic Sans MS&quot;&gt;&lt;span style=&quot;font-size: 25px;&quot;&gt;Dispatcher&lt;br&gt;Servlet&lt;/span&gt;&lt;/font&gt;" style="rounded=1;whiteSpace=wrap;html=1;fillColor=none;strokeWidth=5;labelPosition=center;verticalLabelPosition=middle;align=center;verticalAlign=middle;" parent="1" vertex="1">
          <mxGeometry x="770" y="200.63" width="160" height="110" as="geometry" />
        </mxCell>
        <mxCell id="OQ7VlELL3s1LQOsK370u-8" value="" style="endArrow=classic;html=1;rounded=0;strokeWidth=5;exitX=1;exitY=0.5;exitDx=0;exitDy=0;entryX=0;entryY=0.5;entryDx=0;entryDy=0;startArrow=classic;startFill=1;" parent="1" source="OQ7VlELL3s1LQOsK370u-6" target="OQ7VlELL3s1LQOsK370u-7" edge="1">
          <mxGeometry width="50" height="50" relative="1" as="geometry">
            <mxPoint x="700" y="528.63" as="sourcePoint" />
            <mxPoint x="990" y="420.63" as="targetPoint" />
          </mxGeometry>
        </mxCell>
        <mxCell id="OQ7VlELL3s1LQOsK370u-10" value="" style="endArrow=classic;html=1;rounded=0;strokeWidth=5;exitX=1;exitY=0.5;exitDx=0;exitDy=0;entryX=0;entryY=0.5;entryDx=0;entryDy=0;startArrow=classic;startFill=1;" parent="1" source="OQ7VlELL3s1LQOsK370u-5" target="OQ7VlELL3s1LQOsK370u-9" edge="1">
          <mxGeometry width="50" height="50" relative="1" as="geometry">
            <mxPoint x="230" y="323" as="sourcePoint" />
            <mxPoint x="520" y="205" as="targetPoint" />
          </mxGeometry>
        </mxCell>
        <mxCell id="OQ7VlELL3s1LQOsK370u-11" value="&lt;font face=&quot;Comic Sans MS&quot;&gt;&lt;span style=&quot;font-size: 25px;&quot;&gt;Handler&lt;br&gt;Mapping&lt;/span&gt;&lt;/font&gt;" style="rounded=1;whiteSpace=wrap;html=1;fillColor=none;strokeWidth=5;labelPosition=center;verticalLabelPosition=middle;align=center;verticalAlign=middle;" parent="1" vertex="1">
          <mxGeometry x="1110" y="200.63" width="160" height="110" as="geometry" />
        </mxCell>
        <mxCell id="OQ7VlELL3s1LQOsK370u-12" value="&lt;font face=&quot;Comic Sans MS&quot;&gt;&lt;span style=&quot;font-size: 25px;&quot;&gt;Interceptor&lt;/span&gt;&lt;/font&gt;" style="rounded=1;whiteSpace=wrap;html=1;fillColor=none;strokeWidth=5;labelPosition=center;verticalLabelPosition=middle;align=center;verticalAlign=middle;" parent="1" vertex="1">
          <mxGeometry x="1410" y="-110" width="160" height="160" as="geometry" />
        </mxCell>
        <mxCell id="OQ7VlELL3s1LQOsK370u-13" value="" style="endArrow=classic;html=1;rounded=0;strokeWidth=5;exitX=1;exitY=0.5;exitDx=0;exitDy=0;entryX=0;entryY=0.5;entryDx=0;entryDy=0;startArrow=classic;startFill=1;" parent="1" source="OQ7VlELL3s1LQOsK370u-11" target="OQ7VlELL3s1LQOsK370u-12" edge="1">
          <mxGeometry width="50" height="50" relative="1" as="geometry">
            <mxPoint x="1440" y="80" as="sourcePoint" />
            <mxPoint x="1550" y="80" as="targetPoint" />
          </mxGeometry>
        </mxCell>
        <mxCell id="OQ7VlELL3s1LQOsK370u-14" value="" style="endArrow=classic;html=1;rounded=0;strokeWidth=5;exitX=1;exitY=0.5;exitDx=0;exitDy=0;entryX=0;entryY=0.5;entryDx=0;entryDy=0;startArrow=classic;startFill=1;strokeColor=#009900;" parent="1" source="OQ7VlELL3s1LQOsK370u-11" target="OQ7VlELL3s1LQOsK370u-15" edge="1">
          <mxGeometry width="50" height="50" relative="1" as="geometry">
            <mxPoint x="1300" y="65" as="sourcePoint" />
            <mxPoint x="1370" y="-20" as="targetPoint" />
          </mxGeometry>
        </mxCell>
        <mxCell id="OQ7VlELL3s1LQOsK370u-15" value="&lt;font face=&quot;Comic Sans MS&quot;&gt;&lt;span style=&quot;font-size: 25px;&quot;&gt;Handler&lt;br&gt;Adapter&lt;/span&gt;&lt;/font&gt;" style="rounded=1;whiteSpace=wrap;html=1;fillColor=none;strokeWidth=5;labelPosition=center;verticalLabelPosition=middle;align=center;verticalAlign=middle;strokeColor=#009900;" parent="1" vertex="1">
          <mxGeometry x="1420" y="70" width="160" height="160" as="geometry" />
        </mxCell>
        <mxCell id="OQ7VlELL3s1LQOsK370u-16" value="&lt;font face=&quot;Comic Sans MS&quot;&gt;&lt;span style=&quot;font-size: 25px;&quot;&gt;Argument&lt;br&gt;Resolver&lt;/span&gt;&lt;/font&gt;" style="rounded=1;whiteSpace=wrap;html=1;fillColor=none;strokeWidth=5;labelPosition=center;verticalLabelPosition=middle;align=center;verticalAlign=middle;dashed=1;strokeColor=#009900;" parent="1" vertex="1">
          <mxGeometry x="1670" y="-120" width="160" height="160" as="geometry" />
        </mxCell>
        <mxCell id="OQ7VlELL3s1LQOsK370u-17" value="&lt;font face=&quot;Comic Sans MS&quot;&gt;&lt;span style=&quot;font-size: 25px;&quot;&gt;Controller&lt;/span&gt;&lt;/font&gt;" style="rounded=1;whiteSpace=wrap;html=1;fillColor=none;strokeWidth=5;labelPosition=center;verticalLabelPosition=middle;align=center;verticalAlign=middle;strokeColor=#009900;" parent="1" vertex="1">
          <mxGeometry x="1670" y="70" width="160" height="160" as="geometry" />
        </mxCell>
        <mxCell id="OQ7VlELL3s1LQOsK370u-18" value="" style="endArrow=classic;html=1;rounded=0;strokeWidth=5;exitX=1;exitY=0.5;exitDx=0;exitDy=0;entryX=0;entryY=0.5;entryDx=0;entryDy=0;startArrow=classic;startFill=1;strokeColor=#009900;" parent="1" source="OQ7VlELL3s1LQOsK370u-15" target="OQ7VlELL3s1LQOsK370u-16" edge="1">
          <mxGeometry width="50" height="50" relative="1" as="geometry">
            <mxPoint x="1660" y="200" as="sourcePoint" />
            <mxPoint x="1730" y="295" as="targetPoint" />
          </mxGeometry>
        </mxCell>
        <mxCell id="OQ7VlELL3s1LQOsK370u-19" value="" style="endArrow=classic;html=1;rounded=0;strokeWidth=5;exitX=1;exitY=0.5;exitDx=0;exitDy=0;entryX=0;entryY=0.5;entryDx=0;entryDy=0;startArrow=classic;startFill=1;strokeColor=#009900;" parent="1" source="OQ7VlELL3s1LQOsK370u-15" target="OQ7VlELL3s1LQOsK370u-17" edge="1">
          <mxGeometry width="50" height="50" relative="1" as="geometry">
            <mxPoint x="1750" y="380" as="sourcePoint" />
            <mxPoint x="1810" y="260" as="targetPoint" />
          </mxGeometry>
        </mxCell>
        <mxCell id="OQ7VlELL3s1LQOsK370u-22" value="&lt;font face=&quot;Comic Sans MS&quot;&gt;&lt;span style=&quot;font-size: 25px;&quot;&gt;WebGraphQl&lt;br&gt;Handler&lt;/span&gt;&lt;/font&gt;" style="rounded=1;whiteSpace=wrap;html=1;fillColor=none;strokeWidth=5;labelPosition=center;verticalLabelPosition=middle;align=center;verticalAlign=middle;strokeColor=#CC00CC;" parent="1" vertex="1">
          <mxGeometry x="1420" y="390" width="160" height="160" as="geometry" />
        </mxCell>
        <mxCell id="OQ7VlELL3s1LQOsK370u-23" value="&lt;font face=&quot;Comic Sans MS&quot;&gt;&lt;span style=&quot;font-size: 25px;&quot;&gt;Execution&lt;br&gt;GraphQl&lt;br&gt;Service&lt;/span&gt;&lt;/font&gt;" style="rounded=1;whiteSpace=wrap;html=1;fillColor=none;strokeWidth=5;labelPosition=center;verticalLabelPosition=middle;align=center;verticalAlign=middle;strokeColor=#CC00CC;" parent="1" vertex="1">
          <mxGeometry x="1670" y="470" width="160" height="160" as="geometry" />
        </mxCell>
        <mxCell id="OQ7VlELL3s1LQOsK370u-25" value="&lt;font face=&quot;Comic Sans MS&quot;&gt;&lt;span style=&quot;font-size: 25px;&quot;&gt;Execution&lt;br&gt;Strategy&lt;/span&gt;&lt;/font&gt;" style="rounded=1;whiteSpace=wrap;html=1;fillColor=none;strokeWidth=5;labelPosition=center;verticalLabelPosition=middle;align=center;verticalAlign=middle;strokeColor=#CC00CC;dashed=1;" parent="1" vertex="1">
          <mxGeometry x="1670" y="300" width="160" height="160" as="geometry" />
        </mxCell>
        <mxCell id="OQ7VlELL3s1LQOsK370u-26" value="" style="endArrow=classic;html=1;rounded=0;strokeWidth=5;exitX=1;exitY=0.5;exitDx=0;exitDy=0;entryX=0;entryY=0.5;entryDx=0;entryDy=0;startArrow=classic;startFill=1;strokeColor=#CC00CC;" parent="1" source="OQ7VlELL3s1LQOsK370u-22" target="OQ7VlELL3s1LQOsK370u-25" edge="1">
          <mxGeometry width="50" height="50" relative="1" as="geometry">
            <mxPoint x="1564" y="350" as="sourcePoint" />
            <mxPoint x="1654" y="350" as="targetPoint" />
          </mxGeometry>
        </mxCell>
        <mxCell id="OQ7VlELL3s1LQOsK370u-27" value="" style="endArrow=classic;html=1;rounded=0;strokeWidth=5;exitX=1;exitY=0.5;exitDx=0;exitDy=0;entryX=0;entryY=0.5;entryDx=0;entryDy=0;startArrow=classic;startFill=1;strokeColor=#CC00CC;" parent="1" source="OQ7VlELL3s1LQOsK370u-22" target="OQ7VlELL3s1LQOsK370u-23" edge="1">
          <mxGeometry width="50" height="50" relative="1" as="geometry">
            <mxPoint x="1600" y="230" as="sourcePoint" />
            <mxPoint x="1690" y="230" as="targetPoint" />
          </mxGeometry>
        </mxCell>
        <mxCell id="OQ7VlELL3s1LQOsK370u-28" value="&lt;font face=&quot;Comic Sans MS&quot;&gt;&lt;span style=&quot;font-size: 25px;&quot;&gt;Data&lt;br&gt;Fetcher&lt;/span&gt;&lt;/font&gt;" style="rounded=1;whiteSpace=wrap;html=1;fillColor=none;strokeWidth=5;labelPosition=center;verticalLabelPosition=middle;align=center;verticalAlign=middle;strokeColor=#CC00CC;" parent="1" vertex="1">
          <mxGeometry x="1970" y="370" width="160" height="160" as="geometry" />
        </mxCell>
        <mxCell id="OQ7VlELL3s1LQOsK370u-29" value="" style="endArrow=classic;html=1;rounded=0;strokeWidth=5;exitX=1;exitY=0.5;exitDx=0;exitDy=0;entryX=0;entryY=0.5;entryDx=0;entryDy=0;startArrow=classic;startFill=1;strokeColor=#CC00CC;" parent="1" source="OQ7VlELL3s1LQOsK370u-23" target="OQ7VlELL3s1LQOsK370u-28" edge="1">
          <mxGeometry width="50" height="50" relative="1" as="geometry">
            <mxPoint x="1590" y="480" as="sourcePoint" />
            <mxPoint x="1680" y="560" as="targetPoint" />
          </mxGeometry>
        </mxCell>
        <mxCell id="OQ7VlELL3s1LQOsK370u-31" value="&lt;font face=&quot;Comic Sans MS&quot; style=&quot;font-size: 25px;&quot;&gt;GraphQlHttp&lt;br&gt;RequestPredicate&lt;/font&gt;" style="endArrow=classic;html=1;rounded=0;strokeWidth=5;exitX=1;exitY=0.5;exitDx=0;exitDy=0;startArrow=classic;startFill=1;entryX=0;entryY=0.5;entryDx=0;entryDy=0;strokeColor=#CC00CC;" parent="1" source="OQ7VlELL3s1LQOsK370u-11" target="OQ7VlELL3s1LQOsK370u-22" edge="1">
          <mxGeometry x="0.0417" y="100" width="50" height="50" relative="1" as="geometry">
            <mxPoint x="1380" y="446.63" as="sourcePoint" />
            <mxPoint x="1520" y="160.63" as="targetPoint" />
            <mxPoint y="1" as="offset" />
          </mxGeometry>
        </mxCell>
      </root>
    </mxGraphModel>
  </diagram>
</mxfile>
